
The.Smurfs.A.Christmas.Carol.2011.HD.PS3.x264-nenad023
                                                                   
(only the best quality for kids)


General
Complete name                            :The.Smurfs.A.Christmas.Carol.2011.HD.PS3.x264-nenad023
Format                                   : MPEG-4
Codec ID                                 : M4V
File size                                : 457 MiB
Duration                                 : 22mn 34s
Overall bit rate mode                    : Variable
Overall bit rate                         : 2 830 Kbps
Encoded date                             : UTC 2011-11-27 21:56:49
Tagged date                              : UTC 2011-11-27 21:56:49

Video
ID                                       : 1
Format                                   : AVC
Format/Info                              : Advanced Video Codec
Format profile                           : Main@L3.1
Format settings, CABAC                   : No
Format settings, ReFrames                : 3 frames
Codec ID                                 : avc1
Codec ID/Info                            : Advanced Video Coding
Duration                                 : 22mn 34s
Bit rate mode                            : Variable
Bit rate                                 : 2 503 Kbps
Maximum bit rate                         : 3 750 Kbps
Width                                    : 1 280 pixels
Height                                   : 720 pixels
Display aspect ratio                     : 16:9
Frame rate mode                          : Constant
Frame rate                               : 29.970 fps
Color space                              : YUV
Chroma subsampling                       : 4:2:0
Bit depth                                : 8 bits
Scan type                                : Progressive
Bits/(Pixel*Frame)                       : 0.091
Stream size                              : 404 MiB (88%)
Encoded date                             : UTC 2011-11-27 21:56:49
Tagged date                              : UTC 2011-11-27 21:56:49

Audio
ID                                       : 2
Format                                   : AAC
Format/Info                              : Advanced Audio Codec
Format profile                           : LC
Codec ID                                 : 40
Duration                                 : 22mn 34s
Bit rate mode                            : Variable
Bit rate                                 : 320 Kbps
Maximum bit rate                         : 365 Kbps
Channel(s)                               : 2 channels
Channel positions                        : Front: L R
Sampling rate                            : 48.0 KHz
Compression mode                         : Lossy
Stream size                              : 51.2 MiB (11%)
Encoded date                             : UTC 2011-11-27 21:56:51
Tagged date                              : UTC 2011-11-27 21:56:51

enjoy
nenad023